<mxfile host="Electron" modified="2023-11-07T21:37:40.756Z" agent="Mozilla/5.0 (Windows NT 10.0; Win64; x64) AppleWebKit/537.36 (KHTML, like Gecko) draw.io/22.0.3 Chrome/114.0.5735.289 Electron/25.8.4 Safari/537.36" etag="zLcQpyp1S4ZVlJ2m7skl" version="22.0.3" type="device">
  <diagram name="Page-1" id="mmvWDhMymr1SJaQ09wnv">
    <mxGraphModel dx="864" dy="516" grid="0" gridSize="10" guides="1" tooltips="1" connect="1" arrows="1" fold="1" page="1" pageScale="1" pageWidth="850" pageHeight="1100" background="#ffffff" math="0" shadow="0">
      <root>
        <mxCell id="0" />
        <mxCell id="1" parent="0" />
        <mxCell id="hBqxuRiH-nZI5AV2pxuq-10" value="1" style="swimlane;childLayout=stackLayout;horizontal=1;startSize=50;horizontalStack=0;rounded=1;fontSize=14;fontStyle=0;strokeWidth=2;resizeParent=0;resizeLast=1;shadow=0;dashed=0;align=center;arcSize=4;whiteSpace=wrap;html=1;labelBackgroundColor=none;" parent="1" vertex="1">
          <mxGeometry x="250" y="180" width="160" height="120" as="geometry" />
        </mxCell>
        <mxCell id="hBqxuRiH-nZI5AV2pxuq-11" value="&lt;blockquote style=&quot;margin: 0 0 0 40px; border: none; padding: 0px;&quot;&gt;MYRIDE&lt;/blockquote&gt;" style="align=left;strokeColor=none;fillColor=none;spacingLeft=4;fontSize=12;verticalAlign=top;resizable=0;rotatable=0;part=1;html=1;labelBackgroundColor=none;" parent="hBqxuRiH-nZI5AV2pxuq-10" vertex="1">
          <mxGeometry y="50" width="160" height="70" as="geometry" />
        </mxCell>
        <mxCell id="hBqxuRiH-nZI5AV2pxuq-12" value="ADMIN&amp;nbsp;" style="whiteSpace=wrap;html=1;align=center;labelBackgroundColor=none;" parent="1" vertex="1">
          <mxGeometry x="510" y="360" width="100" height="40" as="geometry" />
        </mxCell>
        <mxCell id="hBqxuRiH-nZI5AV2pxuq-13" value="USER" style="whiteSpace=wrap;html=1;align=center;labelBackgroundColor=none;" parent="1" vertex="1">
          <mxGeometry x="20" y="80" width="100" height="40" as="geometry" />
        </mxCell>
        <mxCell id="hBqxuRiH-nZI5AV2pxuq-14" value="" style="endArrow=open;endFill=1;endSize=12;html=1;rounded=0;exitX=0;exitY=0.5;exitDx=0;exitDy=0;entryX=1;entryY=0.5;entryDx=0;entryDy=0;labelBackgroundColor=none;fontColor=default;" parent="1" target="hBqxuRiH-nZI5AV2pxuq-13" edge="1">
          <mxGeometry width="160" relative="1" as="geometry">
            <mxPoint x="250" y="250" as="sourcePoint" />
            <mxPoint x="80" y="255" as="targetPoint" />
            <Array as="points">
              <mxPoint x="200" y="250" />
              <mxPoint x="200" y="100" />
            </Array>
          </mxGeometry>
        </mxCell>
        <mxCell id="hBqxuRiH-nZI5AV2pxuq-15" value="" style="endArrow=open;endFill=1;endSize=12;html=1;rounded=0;exitX=1;exitY=0;exitDx=0;exitDy=0;entryX=0;entryY=0;entryDx=0;entryDy=0;labelBackgroundColor=none;fontColor=default;" parent="1" source="hBqxuRiH-nZI5AV2pxuq-13" target="hBqxuRiH-nZI5AV2pxuq-10" edge="1">
          <mxGeometry width="160" relative="1" as="geometry">
            <mxPoint x="340" y="270" as="sourcePoint" />
            <mxPoint x="500" y="270" as="targetPoint" />
            <Array as="points">
              <mxPoint x="250" y="80" />
            </Array>
          </mxGeometry>
        </mxCell>
        <mxCell id="hBqxuRiH-nZI5AV2pxuq-18" value="Book pay" style="edgeLabel;html=1;align=center;verticalAlign=middle;resizable=0;points=[];labelBackgroundColor=none;" parent="hBqxuRiH-nZI5AV2pxuq-15" vertex="1" connectable="0">
          <mxGeometry x="-0.3826" y="7" relative="1" as="geometry">
            <mxPoint y="-1" as="offset" />
          </mxGeometry>
        </mxCell>
        <mxCell id="hBqxuRiH-nZI5AV2pxuq-16" value="" style="endArrow=open;endFill=1;endSize=12;html=1;rounded=0;entryX=1;entryY=0.25;entryDx=0;entryDy=0;exitX=0;exitY=0.25;exitDx=0;exitDy=0;labelBackgroundColor=none;fontColor=default;" parent="1" source="hBqxuRiH-nZI5AV2pxuq-12" target="hBqxuRiH-nZI5AV2pxuq-10" edge="1">
          <mxGeometry width="160" relative="1" as="geometry">
            <mxPoint x="500" y="360" as="sourcePoint" />
            <mxPoint x="390" y="360" as="targetPoint" />
            <Array as="points">
              <mxPoint x="480" y="370" />
              <mxPoint x="480" y="210" />
            </Array>
          </mxGeometry>
        </mxCell>
        <mxCell id="hBqxuRiH-nZI5AV2pxuq-17" value="" style="endArrow=open;endFill=1;endSize=12;html=1;rounded=0;entryX=0;entryY=0.5;entryDx=0;entryDy=0;labelBackgroundColor=none;fontColor=default;" parent="1" target="hBqxuRiH-nZI5AV2pxuq-12" edge="1">
          <mxGeometry width="160" relative="1" as="geometry">
            <mxPoint x="410" y="260" as="sourcePoint" />
            <mxPoint x="400" y="370" as="targetPoint" />
            <Array as="points">
              <mxPoint x="450" y="260" />
              <mxPoint x="450" y="380" />
            </Array>
          </mxGeometry>
        </mxCell>
        <mxCell id="hBqxuRiH-nZI5AV2pxuq-19" value="ticket&lt;br&gt;schedule task&amp;nbsp;&lt;br&gt;details" style="text;html=1;align=center;verticalAlign=middle;resizable=0;points=[];autosize=1;strokeColor=none;fillColor=none;rotation=90;labelBackgroundColor=none;" parent="1" vertex="1">
          <mxGeometry x="130" y="113" width="100" height="60" as="geometry" />
        </mxCell>
        <mxCell id="hBqxuRiH-nZI5AV2pxuq-20" value="maintain master" style="text;html=1;align=center;verticalAlign=middle;resizable=0;points=[];autosize=1;strokeColor=none;fillColor=none;rotation=90;labelBackgroundColor=none;" parent="1" vertex="1">
          <mxGeometry x="443" y="248" width="110" height="30" as="geometry" />
        </mxCell>
        <mxCell id="hBqxuRiH-nZI5AV2pxuq-21" value="generate" style="text;html=1;align=center;verticalAlign=middle;resizable=0;points=[];autosize=1;strokeColor=none;fillColor=none;rotation=90;labelBackgroundColor=none;" parent="1" vertex="1">
          <mxGeometry x="395" y="308" width="70" height="30" as="geometry" />
        </mxCell>
        <mxCell id="hBqxuRiH-nZI5AV2pxuq-22" value="&lt;b&gt;&lt;u&gt;LEVEL 0 DFD&amp;nbsp; VIEW, SCHEDULE, ROUTE, PRICE&lt;/u&gt;&lt;/b&gt;" style="text;html=1;align=center;verticalAlign=middle;resizable=0;points=[];autosize=1;strokeColor=none;fillColor=none;labelBackgroundColor=none;" parent="1" vertex="1">
          <mxGeometry x="121" y="8" width="300" height="30" as="geometry" />
        </mxCell>
        <mxCell id="hBqxuRiH-nZI5AV2pxuq-24" value="FIG: context view of myRide application" style="text;html=1;align=center;verticalAlign=middle;resizable=0;points=[];autosize=1;strokeColor=none;fillColor=none;labelBackgroundColor=none;" parent="1" vertex="1">
          <mxGeometry x="20" y="400" width="230" height="30" as="geometry" />
        </mxCell>
      </root>
    </mxGraphModel>
  </diagram>
</mxfile>
